name GIL06_static.mot
datacolumns 141
datarows 4
range 0.42500001 0.44999999
endheader

                time	           pelvis_tx	           pelvis_ty	           pelvis_tz	         pelvis_tilt	         pelvis_list	     pelvis_rotation	       hip_flexion_r	     hip_adduction_r	      hip_rotation_r	        knee_angle_r	       ankle_angle_r	    subtalar_angle_r	         mtp_angle_r	       hip_flexion_l	     hip_adduction_l	      hip_rotation_l	        knee_angle_l	       ankle_angle_l	    subtalar_angle_l	         mtp_angle_l	    lumbar_extension	      lumbar_bending	     lumbar_rotation	    ground_marker_px	    ground_marker_py	    ground_marker_pz	    ground_marker_px	    ground_marker_py	    ground_marker_pz	    ground_marker_px	    ground_marker_py	    ground_marker_pz	    ground_marker_px	    ground_marker_py	    ground_marker_pz	    ground_marker_px	    ground_marker_py	    ground_marker_pz	    ground_marker_px	    ground_marker_py	    ground_marker_pz	    ground_marker_px	    ground_marker_py	    ground_marker_pz	    ground_marker_px	    ground_marker_py	    ground_marker_pz	    ground_marker_px	    ground_marker_py	    ground_marker_pz	    ground_marker_px	    ground_marker_py	    ground_marker_pz	    ground_marker_px	    ground_marker_py	    ground_marker_pz	    ground_marker_px	    ground_marker_py	    ground_marker_pz	    ground_marker_px	    ground_marker_py	    ground_marker_pz	    ground_marker_px	    ground_marker_py	    ground_marker_pz	    ground_marker_px	    ground_marker_py	    ground_marker_pz	    ground_marker_px	    ground_marker_py	    ground_marker_pz	    ground_marker_px	    ground_marker_py	    ground_marker_pz	    ground_marker_px	    ground_marker_py	    ground_marker_pz	    ground_marker_px	    ground_marker_py	    ground_marker_pz	    ground_marker_px	    ground_marker_py	    ground_marker_pz	    ground_marker_px	    ground_marker_py	    ground_marker_pz	    ground_marker_px	    ground_marker_py	    ground_marker_pz	    ground_marker_px	    ground_marker_py	    ground_marker_pz	    ground_marker_px	    ground_marker_py	    ground_marker_pz	    ground_marker_px	    ground_marker_py	    ground_marker_pz	    ground_marker_px	    ground_marker_py	    ground_marker_pz	    ground_marker_px	    ground_marker_py	    ground_marker_pz	    ground_marker_px	    ground_marker_py	    ground_marker_pz	    ground_marker_px	    ground_marker_py	    ground_marker_pz	    ground_marker_px	    ground_marker_py	    ground_marker_pz	    ground_marker_px	    ground_marker_py	    ground_marker_pz	    ground_marker_px	    ground_marker_py	    ground_marker_pz	    ground_marker_px	    ground_marker_py	    ground_marker_pz	    ground_marker_px	    ground_marker_py	    ground_marker_pz	    ground_marker_px	    ground_marker_py	    ground_marker_pz	    ground_marker_px	    ground_marker_py	    ground_marker_pz	    ground_marker_px	    ground_marker_py	    ground_marker_pz	    ground_marker_px	    ground_marker_py	    ground_marker_pz	    ground_marker_px	    ground_marker_py	    ground_marker_pz	
          0.42500001	          0.85780567	          0.85288680	         -0.24253134	         -8.53402901	          0.08647349	          0.16179897	          8.15389633	         -1.84401846	          5.00184965	         -0.69414413	         -2.04969740	          0.00000000	          0.00000000	          9.88476944	         -1.91842055	         -4.50144482	         -1.86929786	         -0.53115451	          0.00000000	          0.00000000	          8.01706791	         -0.90084547	          1.91806519	          0.74389279	          0.78517240	         -0.24385719	          0.72308028	          0.79055589	         -0.16458127	          0.72275108	          0.79092997	         -0.32020959	          0.72064441	          0.41960326	         -0.15352549	          0.73126805	          0.42865774	         -0.33323735	          0.71620405	          0.05900424	         -0.11683103	          0.72606361	          0.05679065	         -0.36816064	          0.85780567	          0.85288680	         -0.24253134	          0.85806453	          0.85259259	         -0.12015081	          0.85754681	          0.85318094	         -0.36491188	          0.61882865	          0.94396269	         -0.20687173	          0.61564612	          0.94200087	         -0.26245868	          0.72722298	          0.42174092	         -0.08035170	          0.72528833	          0.43115002	         -0.40645126	          0.70967788	          0.42439324	         -0.22553699	          0.72805870	          0.40889144	         -0.26021636	          0.70585686	          0.06309435	         -0.07788932	          0.70244431	          0.06030874	         -0.40210181	          0.72232616	          0.06644298	         -0.15271126	          0.72221720	          0.07251677	         -0.32558578	          0.65340120	          0.05002760	         -0.12463987	          0.67234224	          0.04727274	         -0.33442548	          0.77975744	          1.28895676	         -0.26358891	          0.83824837	          1.22043300	         -0.26355600	          0.66044796	          1.35150683	         -0.24754225	          0.79789203	          1.29661870	         -0.21102329	          0.79496467	          1.29552948	         -0.29316390	          0.82465810	          0.04382210	         -0.10458521	          0.82207263	          0.04835600	         -0.38323206	          0.88787228	          0.57380843	         -0.08862840	          0.90861481	          0.60590625	         -0.34697989	          0.84970313	          0.59590548	         -0.11008800	          0.86067712	          0.62126756	         -0.35121050	          0.82115340	          0.52352250	         -0.11399516	          0.84291798	          0.54992664	         -0.35214067	          0.79931575	          0.20875292	         -0.10363024	          0.68617642	          0.17546752	         -0.46012893	          0.75374103	          0.21436773	         -0.11710951	          0.69207317	          0.18464468	         -0.41216993	
          0.43333334	          0.85790658	          0.85289645	         -0.24258712	         -8.53899765	          0.09101618	          0.16902389	          8.15687561	         -1.84859872	          4.94890213	         -0.69536299	         -2.02849197	          0.00000000	          0.00000000	          9.86765671	         -1.91047454	         -4.46015596	         -1.84770739	         -0.54286325	          0.00000000	          0.00000000	          8.01173973	         -0.81358027	          1.75421572	          0.74398571	          0.78519547	         -0.24391067	          0.72318280	          0.79056793	         -0.16463226	          0.72283965	          0.79096055	         -0.32026049	          0.72073537	          0.41963851	         -0.15359128	          0.73121649	          0.42866573	         -0.33328214	          0.71625435	          0.05901040	         -0.11690522	          0.72602421	          0.05680371	         -0.36818364	          0.85790658	          0.85289645	         -0.24258712	          0.85817653	          0.85258764	         -0.12018101	          0.85763663	          0.85320520	         -0.36499321	          0.61899537	          0.94395941	         -0.20692204	          0.61584866	          0.94200701	         -0.26254573	          0.72725302	          0.42177373	         -0.08041198	          0.72528404	          0.43116015	         -0.40649983	          0.70940804	          0.42459601	         -0.22555035	          0.72808772	          0.40885702	         -0.26034343	          0.70587474	          0.06309998	         -0.07797207	          0.70242763	          0.06032026	         -0.40214071	          0.72224009	          0.06648443	         -0.15280315	          0.72207838	          0.07252403	         -0.32559165	          0.65340477	          0.04999159	         -0.12464690	          0.67234826	          0.04727198	         -0.33443847	          0.77983105	          1.28897154	         -0.26360711	          0.83831173	          1.22043908	         -0.26352420	          0.66053259	          1.35150242	         -0.24746744	          0.79781908	          1.29654408	         -0.21103546	          0.79512298	          1.29559112	         -0.29307261	          0.82463020	          0.04383092	         -0.10460407	          0.82204902	          0.04833104	         -0.38329360	          0.88790715	          0.57381660	         -0.08871491	          0.90864462	          0.60587758	         -0.34698582	          0.84977508	          0.59586293	         -0.11013355	          0.86067712	          0.62126756	         -0.35121050	          0.82109481	          0.52351022	         -0.11404122	          0.84294176	          0.54999167	         -0.35218227	          0.79930943	          0.20874521	         -0.10367671	          0.68617105	          0.17548609	         -0.46020746	          0.75366491	          0.21435089	         -0.11710291	          0.69199657	          0.18468568	         -0.41217580	
          0.44166666	          0.85800737	          0.85290146	         -0.24262547	         -8.54132462	          0.09294660	          0.18487762	          8.14963341	         -1.85205460	          4.90277719	         -0.68795675	         -2.01485825	          0.00000000	          0.00000000	          9.85487938	         -1.90733063	         -4.42926931	         -1.83522153	         -0.54693776	          0.00000000	          0.00000000	          7.99962950	         -0.85184270	          1.59091425	          0.74407780	          0.78521490	         -0.24392954	          0.72330040	          0.79056841	         -0.16464531	          0.72291875	          0.79098099	         -0.32027340	          0.72079396	          0.41964090	         -0.15362903	          0.73119760	          0.42866260	         -0.33332443	          0.71628779	          0.05902084	         -0.11697322	          0.72599483	          0.05681434	         -0.36822540	          0.85800737	          0.85290146	         -0.24262547	          0.85830760	          0.85257691	         -0.12020020	          0.85770714	          0.85322607	         -0.36505073	          0.61922222	          0.94390363	         -0.20701337	          0.61602551	          0.94201910	         -0.26264286	          0.72727120	          0.42177060	         -0.08044596	          0.72528732	          0.43116495	         -0.40654367	          0.70906281	          0.42485431	         -0.22551301	          0.72836810	          0.40877834	         -0.26017597	          0.70588666	          0.06310768	         -0.07804554	          0.70240903	          0.06033218	         -0.40218988	          0.72225249	          0.06660534	         -0.15288816	          0.72201300	          0.07249217	         -0.32562235	          0.65341961	          0.04996124	         -0.12465850	          0.67235035	          0.04727058	         -0.33445388	          0.77990395	          1.28891230	         -0.26358306	          0.83836931	          1.22036743	         -0.26331067	          0.66053170	          1.35150552	         -0.24741323	          0.79775667	          1.29650962	         -0.21097474	          0.79527402	          1.29551256	         -0.29300648	          0.82459694	          0.04382969	         -0.10462504	          0.82203686	          0.04831838	         -0.38334921	          0.88796228	          0.57381725	         -0.08882122	          0.90866929	          0.60584807	         -0.34698820	          0.84981108	          0.59584165	         -0.11015633	          0.86067712	          0.62126756	         -0.35121050	          0.82104117	          0.52353746	         -0.11408488	          0.84303606	          0.55001277	         -0.35213292	          0.79930699	          0.20873980	         -0.10369430	          0.68619329	          0.17550132	         -0.46027422	          0.75396687	          0.21441361	         -0.11701545	          0.69199657	          0.18468568	         -0.41217580	
          0.44999999	          0.85811234	          0.85288382	         -0.24265113	         -8.54327774	          0.08537139	          0.21151128	          8.13358879	         -1.84670675	          4.86143446	         -0.67285663	         -2.00966620	          0.00000000	          0.00000000	          9.85057831	         -1.91437113	         -4.41197252	         -1.83284271	         -0.54442585	          0.00000000	          0.00000000	          8.00051498	         -0.89462656	          1.53438604	          0.74417090	          0.78521615	         -0.24390291	          0.72344089	          0.79055220	         -0.16460857	          0.72298425	          0.79097086	         -0.32023644	          0.72082341	          0.41962606	         -0.15364002	          0.73121744	          0.42864633	         -0.33335039	          0.71629936	          0.05902769	         -0.11703019	          0.72598201	          0.05682099	         -0.36828250	          0.85811234	          0.85288382	         -0.24265113	          0.85847157	          0.85255438	         -0.12021527	          0.85775310	          0.85321325	         -0.36508700	          0.61947638	          0.94380790	         -0.20713754	          0.61615968	          0.94203377	         -0.26273435	          0.72728372	          0.42174459	         -0.08045514	          0.72529405	          0.43116176	         -0.40656814	          0.70896423	          0.42485210	         -0.22532751	          0.72866029	          0.40869871	         -0.25997674	          0.70588923	          0.06311024	         -0.07810447	          0.70239055	          0.06034363	         -0.40224254	          0.72214168	          0.06679253	         -0.15298329	          0.72196525	          0.07244780	         -0.32565951	          0.65343821	          0.04994225	         -0.12467023	          0.67234904	          0.04726843	         -0.33447018	          0.78002024	          1.28886318	         -0.26360437	          0.83848524	          1.22031820	         -0.26325390	          0.66057038	          1.35149932	         -0.24743102	          0.79784840	          1.29649854	         -0.21092968	          0.79540330	          1.29544163	         -0.29308748	          0.82456440	          0.04381739	         -0.10464178	          0.82203996	          0.04831617	         -0.38339120	          0.88802826	          0.57380623	         -0.08891764	          0.90868115	          0.60580009	         -0.34698939	          0.84981108	          0.59584165	         -0.11015633	          0.86067712	          0.62126756	         -0.35121050	          0.82111734	          0.52357745	         -0.11407168	          0.84313130	          0.55001915	         -0.35207319	          0.79931349	          0.20873937	         -0.10368837	          0.68621635	          0.17551003	         -0.46032935	          0.75414443	          0.21453728	         -0.11688036	          0.69200778	          0.18467452	         -0.41216967	
